Coordinates
version=1
nRows=15
nColumns=42
inDegrees=yes

Units are S.I. units (second, meters, Newtons, ...)
If the header above contains a line with 'inDegrees', this indicates whether rotational values are in degrees (yes) or radians (no).

endheader
time	pelvis_tilt	pelvis_list	pelvis_rotation	pelvis_tx	pelvis_ty	pelvis_tz	hip_flexion_r	hip_adduction_r	hip_rotation_r	knee_angle_r	knee_adduction_r	knee_angle_r_beta	ankle_angle_r	subtalar_angle_r	mtp_angle_r	hip_flexion_l	hip_adduction_l	hip_rotation_l	knee_angle_l	knee_adduction_l	knee_angle_l_beta	ankle_angle_l	subtalar_angle_l	mtp_angle_l	lumbar_extension	lumbar_bending	lumbar_rotation	arm_flex_r	arm_add_r	arm_rot_r	elbow_flex_r	pro_sup_r	wrist_flex_r	wrist_dev_r	arm_flex_l	arm_add_l	arm_rot_l	elbow_flex_l	pro_sup_l	wrist_flex_l	wrist_dev_l
      0.00000000	     -2.21203855	     -1.85199874	      2.32152842	     -2.01441951	      0.90234656	     -0.18606433	     16.46383381	     -6.60925602	      3.12920325	     53.18125972	     16.61867718	      0.92818808	      0.00000000	      2.75991995	     -9.54813013	      0.67054713	     -6.49485513	     -4.88431112	      4.30583846	     18.75473857	      0.07515106	      8.11660389	      5.34321471	     -9.54813013	    -10.87141411	      1.44928204	     -1.71420240	     -5.87727365	    -14.40798097	     -5.02165476	     18.34038013	     90.00000001	      0.00000000	      0.00000000	     -2.13289097	    -13.38535693	      2.76946263	     23.11761805	     90.00000001	      0.00000000	      0.00000000
      0.01000000	     -1.56467785	     -1.71999628	      3.41107981	     -2.00407204	      0.90253782	     -0.18878247	     16.49854679	     -7.34996169	     -5.16458718	     46.09960262	     12.09280184	      0.80458985	     11.21822664	     -9.52373032	     -9.44863820	     -0.72306215	     -6.06943206	     -4.48747734	      4.16511290	     18.34886348	      0.07269493	      8.82120722	      6.61726795	     -9.44863820	    -11.42814347	      1.58114659	     -2.57840016	     -5.95041708	    -14.35678335	     -5.29158415	     18.24621244	     90.00000001	      0.00000000	      0.00000000	     -1.75587922	    -13.68586545	      3.27905750	     23.90623373	     90.00000001	      0.00000000	      0.00000000
      0.02000000	     -1.66284312	     -1.62519613	      3.62111311	     -1.99504331	      0.90180954	     -0.19003914	     17.55112765	     -7.42906771	     -5.72731677	     44.14862546	     11.81351224	      0.77053887	     11.37832411	     -9.85006093	     -9.42198315	     -1.27714076	     -5.77009430	     -4.80605677	      4.19849441	     18.10617430	      0.07327755	      9.13455838	      6.75114445	     -9.42198315	    -11.32755158	      1.56982940	     -2.60766599	     -6.02651159	    -14.34883418	     -5.36168773	     18.26307347	     90.00000001	      0.00000000	      0.00000000	     -1.22321182	    -13.84435693	      3.37391279	     24.36215362	     90.00000001	      0.00000000	      0.00000000
      0.03000000	     -1.18501413	     -1.97991367	      4.27364101	     -1.98571826	      0.90186247	     -0.19138584	     17.45816855	     -7.02579553	     -6.29557494	     41.35038965	     11.94302607	      0.72170045	     11.09881508	    -11.01214101	     -9.36459387	     -2.46781538	     -6.20527834	     -4.30598780	      3.93331678	     18.21757280	      0.06864933	      9.93179819	      7.43032970	     -9.36459387	    -11.83578623	      2.14155239	     -2.94191138	     -5.88611075	    -14.28894236	     -5.79868100	     17.99133252	     90.00000001	      0.00000000	      0.00000000	     -0.67459675	    -14.08217672	      3.86396893	     24.96195367	     90.00000001	      0.00000000	      0.00000000
      0.04000000	     -0.98322755	     -2.16097525	      4.60871812	     -1.97655550	      0.90139102	     -0.19238907	     17.86297767	     -6.72499095	     -6.99212802	     38.83175829	     11.67581519	      0.67774204	     10.54953884	    -11.58268142	     -9.29874569	     -3.31580416	     -6.37590238	     -4.30453732	      3.90510903	     18.19425086	      0.06815701	     10.42329842	      7.63861885	     -9.29874569	    -12.07161978	      2.46847835	     -3.02598721	     -5.86899082	    -14.23694659	     -6.16456014	     17.96618923	     90.00000001	      0.00000000	      0.00000000	     -0.15097124	    -14.26900289	      4.18458586	     25.47390697	     90.00000001	      0.00000000	      0.00000000
      0.05000000	     -1.16325221	     -2.04209304	      4.79635024	     -1.96775747	      0.90022965	     -0.19351339	     18.83626937	     -6.83620122	     -7.69158168	     36.61206964	     11.35898953	      0.63900116	     10.15276436	    -11.24105109	     -9.26699027	     -3.66292905	     -6.02814601	     -4.32035071	      4.05812254	     17.89860841	      0.07082760	     10.88637470	      7.71193800	     -9.26699027	    -11.93626372	      2.44984521	     -3.05791077	     -5.90291206	    -14.21350198	     -6.25267279	     17.98691114	     90.00000001	      0.00000000	      0.00000000	      0.33144183	    -14.43314172	      4.32291884	     25.97639284	     90.00000001	      0.00000000	      0.00000000
      0.06000000	     -0.87163111	     -2.32771521	      5.16537349	     -1.95852683	      0.89966312	     -0.19418826	     18.90096095	     -6.39313803	     -8.39116770	     33.65830086	     11.21535228	      0.58744817	      9.24997923	    -11.40422768	     -9.16492405	     -4.59554106	     -6.42984884	     -4.00776313	      3.95752484	     18.04186681	      0.06907184	     11.46676975	      7.69162242	     -9.16492405	    -12.28281198	      2.88478075	     -3.15061391	     -5.84486710	    -14.10506834	     -6.72546463	     17.88770638	     90.00000001	      0.00000000	      0.00000000	      0.83182021	    -14.66401773	      4.72208599	     26.46447832	     90.00000001	      0.00000000	      0.00000000
      0.07000000	     -0.89925326	     -2.32658549	      5.39154511	     -1.94955095	      0.89854986	     -0.19511127	     19.40000820	     -6.32280338	     -9.00524612	     30.87331154	     11.03855883	      0.53884094	      8.42726501	    -10.96575358	     -9.07799228	     -5.11021109	     -6.35553113	     -3.70385115	      4.03592585	     18.00346612	      0.07044019	     12.04520869	      7.50876444	     -9.07799228	    -12.31527202	      3.01506613	     -3.24564362	     -5.78328016	    -14.07223187	     -6.92412558	     17.80647523	     90.00000001	      0.00000000	      0.00000000	      1.26280908	    -14.83127253	      4.97852414	     26.89916789	     90.00000001	      0.00000000	      0.00000000
      0.08000000	     -1.24299020	     -2.08429715	      5.42848611	     -1.94086669	      0.89685053	     -0.19587991	     20.42532493	     -6.57508807	     -9.65498943	     28.47754450	     10.86957106	      0.49702691	      7.61532944	    -10.02153940	     -9.05215490	     -5.22594012	     -5.87265095	     -3.66101809	      4.31214190	     17.71420780	      0.07526107	     12.56521673	      7.43604190	     -9.05215490	    -12.06642604	      2.82202371	     -3.22695752	     -5.79283931	    -13.98976754	     -6.93010973	     17.88170678	     90.00000001	      0.00000000	      0.00000000	      1.66745358	    -14.97279507	      5.08389716	     27.34507811	     90.00000001	      0.00000000	      0.00000000
      0.09000000	     -1.52222284	     -1.92748191	      5.60888667	     -1.93191128	      0.89520681	     -0.19674636	     21.07636935	     -6.69852695	    -10.16295905	     25.54613362	     10.79963285	      0.44586414	      6.52124588	     -8.81792160	     -9.02492386	     -5.40052084	     -5.51947477	     -3.40518033	      4.56323579	     17.48166837	      0.07964349	     13.23793175	      7.31428434	     -9.02492386	    -11.83445015	      2.75584352	     -3.32498183	     -5.81255854	    -13.94774533	     -6.99799769	     17.82117749	     90.00000001	      0.00000000	      0.00000000	      2.01217096	    -15.17333524	      5.27676261	     27.73813918	     90.00000001	      0.00000000	      0.00000000
      0.10000000	     -1.20188715	     -2.19044545	      5.92451170	     -1.92235455	      0.89430190	     -0.19722035	     20.65908224	     -6.20097680	    -10.62755515	     21.90416631	     10.75903337	      0.38229982	      5.34400340	     -8.33657882	     -8.95598338	     -6.36169402	     -6.00245235	     -2.91700341	      4.50963576	     17.80462687	      0.07870799	     13.76089809	      6.83286624	     -8.95598338	    -12.20525329	      3.20409557	     -3.40684013	     -5.74885181	    -13.85586498	     -7.34603880	     17.66020853	     90.00000001	      0.00000000	      0.00000000	      2.43216241	    -15.36747668	      5.61675671	     28.07576042	     90.00000001	      0.00000000	      0.00000000
      0.11000000	     -1.63986756	     -1.87512816	      5.95585692	     -1.91324110	      0.89224668	     -0.19791298	     21.47372575	     -6.50140700	    -11.17303777	     19.20407179	     10.68458608	      0.33517428	      4.27864308	     -7.12135975	     -8.93154615	     -6.42452725	     -5.43940585	     -2.78396240	      4.76211304	     17.52185243	      0.08311455	     14.26382431	      6.70561079	     -8.93154615	    -11.81676303	      2.93922733	     -3.44539012	     -5.82525238	    -13.77414629	     -7.35566660	     17.71711330	     90.00000001	      0.00000000	      0.00000000	      2.68510668	    -15.54017817	      5.71753814	     28.42699655	     90.00000001	      0.00000000	      0.00000000
      0.12000000	     -1.45158584	     -1.94283696	      6.22896303	     -1.90353275	      0.89097960	     -0.19839849	     21.08269291	     -6.23609664	    -11.40931155	     15.59823758	     10.70692160	      0.27224060	      3.40426011	     -6.37494608	     -8.87320261	     -7.23771217	     -5.65248987	     -2.36321969	      4.81244563	     17.70887479	      0.08399302	     14.72961728	      6.26068334	     -8.87320261	    -12.05171398	      3.16388803	     -3.56277701	     -5.78884774	    -13.66256093	     -7.53776656	     17.53849269	     90.00000001	      0.00000000	      0.00000000	      3.01640067	    -15.70912007	      5.96347188	     28.69733556	     90.00000001	      0.00000000	      0.00000000
      0.13000000	     -1.55539175	     -1.81158542	      6.35879033	     -1.89386497	      0.88927014	     -0.19885680	     21.10721457	     -6.20368187	    -11.36951609	     12.35337487	     10.71580231	      0.21560707	      2.24017078	     -6.10233710	     -8.77278886	     -7.82860201	     -5.53539304	     -1.91607550	      4.70990577	     17.77232795	      0.08220336	     15.02843166	      5.80330907	     -8.77278886	    -11.98623456	      3.14334311	     -3.62522808	     -5.85792973	    -13.57410293	     -7.65405772	     17.55007772	     90.00000001	      0.00000000	      0.00000000	      3.24495411	    -15.87969038	      6.10091300	     28.97495534	     90.00000001	      0.00000000	      0.00000000
      0.14000000	     -1.97860018	     -1.45262088	      6.47625370	     -1.88419303	      0.88703476	     -0.19951312	     21.69730392	     -6.61303236	    -11.80259045	      9.94626629	     10.81972878	      0.17359510	      1.76457435	     -4.84590509	     -8.75176418	     -7.96785717	     -5.04545557	     -1.77303194	      4.95878021	     17.64247645	      0.08654704	     15.43231959	      5.72198808	     -8.75176418	    -11.56735752	      2.85544489	     -3.78329172	     -5.95457451	    -13.46370382	     -7.63460719	     17.52603780	     90.00000001	      0.00000000	      0.00000000	      3.36709330	    -16.04764025	      6.19583107	     29.18228969	     90.00000001	      0.00000000	      0.00000000
